<svg id="eR601F7ufg41" xmlns="http://www.w3.org/2000/svg" xmlns:xlink="http://www.w3.org/1999/xlink" viewBox="0 0 1000 1080" shape-rendering="geometricPrecision" text-rendering="geometricPrecision"><g transform="matrix(.101762 0 0-.099384-17.62 1162.371295)"><path d="M4775,9094c-793-62-1509-381-2067-922-547-530-879-1195-984-1967-22-163-26-607-6-765c68-551,242-1029,535-1470c211-318,510-627,826-854c717-517,1631-723,2511-566c878,157,1668,677,2161,1422c309,467,488,981,540,1547c15,168,6,550-16,711-83,599-306,1128-679,1610-104,134-400,433-535,539-483,382-1044,618-1655,697-115,15-521,26-631,18Zm735-2343c-74-208-238-670-445-1251-102-289-216-609-253-712-37-105-72-188-79-188-13,0-313,106-320,114-5,4,114,341,619,1761c88,248,167,468,175,491l14,41l169-60l169-59-49-137Zm-1340,14l125-125-385-385-385-385l385-385l385-385-128-127-127-128-512,513-513,512l510,510c280,280,512,510,515,510s61-56,130-125Zm2305-385l510-510-513-512-512-513-127,128-128,127l385,385l385,385-385,385-385,385l125,125c69,69,127,125,130,125s235-230,515-510Z"/><path d="M0,400L0,0h5000h5000v400v400h-5000-5000v-400ZM2192,523c23-20,23-57,1-74-15-11-16-11-5,1c27,31,11,72-33,83-19,4-19,5-1,6c11,0,28-6,38-16Zm-69-8c-3-9-8-14-10-11-3,3-2,9,2,15c9,16,15,13,8-4ZM363,401c22-61,43-108,47-104s24,56,45,116c21,59,42,107,47,107c11,0,9-5-42-149-23-64-44-107-53-109-15-3-17,0-67,143-15,44-31,88-36,99-5,13-3,17,6,14c8-2,32-55,53-117Zm517,89c0-23,4-30,20-30c11,0,20-4,20-10c0-5-10-10-21-10-20,0-21-4-17-71c3-55,8-74,23-85c23-17,14-29-13-15-11,6-22,25-26,42-10,51-7,209,4,209c6,0,10-13,10-30Zm515,16c25-11,33-19,29-30-7-19-5-19-40-1-36,18-55,19-78,2-28-21-9-45,49-62c87-25,108-74,54-127-29-29-33-30-90-25-68,6-72,8-64,29c5,13,12,14,40,5c50-15,100,1,100,33c0,16-8,28-25,36-87,40-105,51-108,67-14,70,53,106,133,73Zm105-16c0-25,4-30,25-30c16,0,25-6,25-15s-9-15-25-15c-24,0-25-3-25-60c0-55,2-62,25-72c14-6,25-15,25-20c0-18-31-20-55-4s-25,20-25,131c0,96,3,115,15,115c10,0,15-10,15-30Zm482-32l3-62l36,32c20,18,45,32,55,32c14,0,9-9-21-40l-39-40l42-60c40-57,41-60,20-60-16,0-32,14-53,45-16,25-33,45-37,45-5,0-8-20-8-45c0-38-3-45-20-45-19,0-20,7-20,130c0,122,1,130,20,130c16,0,19-8,22-62Zm193,30c1-20-2-24-11-17-8,7-14,6-17-3-3-7-6,2-6,20-1,27,3,33,17,30c11-2,17-13,17-30Zm-44-35c13-16,12-17-3-4-17,13-22,21-14,21c2,0,10-8,17-17ZM629,434c12-15,21-40,21-55c0-29,0-29-65-29-72,0-83-12-44-51c17-17,30-20,65-16c43,4,59-5,28-17-45-17-106,3-123,41-45,98,56,206,118,127Zm191,16c17-11,10-13-40-10-47,2-75-28-75-80c0-55,26-80,82-80c27,0,42-4,38-10-9-15-78-12-102,5-50,35-50,135,0,170c24,17,74,20,97,5Zm265-13c20-16,28-35,32-69c5-42,3-50-25-78-41-41-83-41-124,0-28,28-30,36-25,78c9,82,84,119,142,69Zm85,7c0-14,2-14,22,0c24,17,38,20,38,9c0-5-14-16-30-25-29-17-30-19-30-93c0-43-4-75-10-75s-10,40-10,100s4,100,10,100s10-7,10-16Zm537,1c30-21,44-75,32-120-25-88-143-88-168,0-20,72,20,135,84,135c17,0,40-7,52-15Zm198-5c0-10-8-14-27-12-58,6-91-42-67-100c11-28,36-40,74-35c12,1,20-4,20-13c0-19-48-25-85-10-63,26-68,148-6,179c31,15,91,9,91-9Zm5354-83c8-26,17-47,21-47s13,21,21,47c8,25,20,48,26,50c8,3,4-21-11-64-13-38-29-68-36-68s-23,30-36,68c-15,43-19,67-11,64c6-2,18-25,26-50Zm638,38c2-6-9-11-23-10-39,0-42-23-5-36c34-12,49-43,31-64-13-16-38-19-64-9-27,10-18,22,17,20c38-1,43,19,8,37-36,18-48,42-31,62c14,17,61,17,67,0Zm333-20c0-35,16-47,26-20c4,8,13,15,22,15c13,0,13-3-2-19-16-18-16-21-1-50c19-38,8-40-22-3l-22,27-1-27c0-16-4-28-10-28s-10,30-10,70s4,70,10,70s10-16,10-35Zm580,32c0-4-34-104-45-136-3-8-8-11-11-8-8,7,38,147,48,147c4,0,8-2,8-3Zm70-57c0-33,4-60,10-60s10-4,10-10c0-5-13-10-30-10-16,0-30,5-30,10c0,6,5,10,10,10c6,0,10,20,10,45c0,38-2,43-17,38-16-6-16-4,1,15c29,34,36,27,36-38Zm130,55c0-6-60-127-66-134-2-2-7-2-10,1s6,29,20,57s26,53,26,56-13,5-30,5c-16,0-30,5-30,10c0,6,20,10,45,10s45-2,45-5Zm88-7c21-21,13-45-25-77l-38-30l43-1c23,0,42-4,42-10c0-5-22-10-50-10-62,0-65,15-14,63c42,40,39,62-8,53-26-5-29-4-18,9c15,18,51,20,68,3Zm114-40c2-29,2-61,0-70-5-22-22-24-22-3c0,10-10,15-30,15-16,0-30,3-30,6c0,16,56,104,67,104c6,0,13-22,15-52Zm116,44c22-14,27-78,8-107-32-49-86-21-86,45c0,56,39,86,78,62Zm126-14c44-63-17-154-68-102-9,9-16,32-16,54c0,64,52,94,84,48Zm113,10c14-23,12-106-2-118-33-27-86,8-70,46c4,11,7,27,6,37-5,38,47,64,66,35Zm121,4c22-14,27-78,8-107-32-49-86-21-86,45c0,56,39,86,78,62ZM7600,365c9-10,9-15,1-15-15,0-14-57,2-63c6-2,9-7,6-11-15-17-37,8-41,47-7,58,5,74,32,42Zm360,0c9-10,9-15,1-15-15,0-14-57,2-63c6-2,9-7,6-11-15-17-37,8-41,47-7,58,5,74,32,42Zm-532-7c23-23,13-38-24-38-46,0-41-23,7-30c27-4,30-7,16-13-28-11-44-9-61,9-32,31-14,84,29,84c12,0,26-5,33-12Zm109,5c14-6,10-9-17-13-29-4-35-9-35-30s6-26,35-30c27-4,31-7,17-13-10-4-25-7-32-7-20,0-45,28-45,50s25,50,45,50c7,0,22-3,32-7Zm177-9c31-30,9-84-34-84-24,0-50,26-50,50s26,50,50,50c10,0,26-7,34-16Zm86,6c0-4-7-10-15-14-9-3-15-19-15-41c0-19-4-35-10-35-5,0-10,22-10,49c0,45,2,49,25,49c14,0,25-4,25-8Zm274-6c21-20,20-43-1-66-20-22-46-23-67-2-31,30-9,84,34,84c10,0,26-7,34-16Zm121,7c3-5-9-11-27-13-28-2-33-7-33-28s5-26,33-28c36-4,34-22-3-22-28,0-55,24-55,50c0,37,67,69,85,41Zm242,2c14-6,10-9-17-13-29-4-35-9-35-30s5-26,33-28c36-4,34-22-3-22-28,0-55,24-55,50c0,22,25,50,45,50c7,0,22-3,32-7Zm107-9c31-30,9-84-34-84-24,0-50,26-50,50s26,50,50,50c10,0,26-7,34-16Zm113,4c7-5,14-5,18,2c10,16,42,12,49-6c10-25,7-84-4-84-5,0-10,18-10,41c0,33-3,40-17,37-13-2-19-14-21-41-4-50-22-47-22,4c0,36-2,40-22,37-19-2-24-10-26-40-5-55-22-46-22,10c0,48,0,49,33,49c17,0,37-4,44-9Zm-327-78c0-5-4-10-10-10-5,0-10,5-10,10c0,6,5,10,10,10c6,0,10-4,10-10Z" opacity="0"/><path d="M2150,500c0-5,5-10,10-10c6,0,10,5,10,10c0,6-4,10-10,10-5,0-10-4-10-10Z"/><path d="M536,418c-28-39-21-48,39-48c59,0,67,9,45,51-15,27-64,25-84-3Z"/><path d="M986,424c-50-50-21-144,44-144c48,0,80,50,66,104-13,53-75,75-110,40Z"/><path d="M1616,408c-32-46-8-118,39-118c28,0,55,34,55,70s-27,70-55,70c-13,0-31-10-39-22Z"/><path d="M9167,350c-18-29-18-30,2-30c17,0,21,6,21,30c0,17-1,30-3,30-1,0-11-13-20-30Z"/><path d="M9274,365c-9-38,3-75,26-75c13,0,22,9,26,25c9,38-3,75-26,75-13,0-22-9-26-25Z"/><path d="M9394,365c-9-38,3-75,26-75c13,0,22,9,26,25c9,38-3,75-26,75-13,0-22-9-26-25Z"/><path d="M9522,374c2-11,11-20,22-22c13-3,17,1,14,14-2,11-11,20-22,22-13,3-17-1-14-14Z"/><path d="M9514,325c-8-21,10-39,30-32c22,9,20,24-4,37-16,9-22,8-26-5Z"/><path d="M9634,365c-9-38,3-75,26-75s35,37,26,75c-4,16-13,25-26,25s-22-9-26-25Z"/><path d="M7375,340c-4-6,5-10,19-10s26,5,26,10c0,6-9,10-19,10-11,0-23-4-26-10Z"/><path d="M7654,336c-10-26,4-48,28-44c17,2,23,10,23,28s-6,26-23,28c-13,2-25-3-28-12Z"/><path d="M8014,336c-10-26,4-48,28-44c17,2,23,10,23,28s-6,26-23,28c-13,2-25-3-28-12Z"/><path d="M8484,336c-10-26,4-48,28-44c17,2,23,10,23,28s-6,26-23,28c-13,2-25-3-28-12Z"/></g></svg>
